<?xml version="1.0" encoding="iso-8859-1"?>
<!-- Generator: Adobe Illustrator 16.0.0, SVG Export Plug-In . SVG Version: 6.00 Build 0)  -->
<!DOCTYPE svg PUBLIC "-//W3C//DTD SVG 1.1//EN" "http://www.w3.org/Graphics/SVG/1.1/DTD/svg11.dtd">
<svg version="1.1" id="Capa_1" xmlns="http://www.w3.org/2000/svg" xmlns:xlink="http://www.w3.org/1999/xlink" x="0px" y="0px"
	 width="27.834px" height="27.834px" viewBox="0 0 27.834 27.834" style="enable-background:new 0 0 27.834 27.834;"
	 xml:space="preserve">
<g>
	<path d="M13.917,27.834c-7.673,0-13.916-6.243-13.916-13.917S6.244,0,13.917,0s13.916,6.243,13.916,13.917
		S21.59,27.834,13.917,27.834z M13.917,3.001c-6.021,0-10.916,4.897-10.916,10.917c0,6.021,4.896,10.917,10.916,10.917
		c6.02,0,10.916-4.896,10.916-10.917C24.833,7.898,19.937,3.001,13.917,3.001z M13.917,20.168c-3.446,0-6.25-2.804-6.25-6.25
		c0-3.446,2.804-6.25,6.25-6.25c3.445,0,6.25,2.804,6.25,6.25C20.167,17.364,17.362,20.168,13.917,20.168z M13.917,9.668
		c-2.344,0-4.25,1.907-4.25,4.25s1.906,4.25,4.25,4.25c2.346,0,4.25-1.907,4.25-4.25S16.263,9.668,13.917,9.668z"/>
</g>
<g>
</g>
<g>
</g>
<g>
</g>
<g>
</g>
<g>
</g>
<g>
</g>
<g>
</g>
<g>
</g>
<g>
</g>
<g>
</g>
<g>
</g>
<g>
</g>
<g>
</g>
<g>
</g>
<g>
</g>
</svg>
