<!--?xml version="1.0" encoding="utf-8"?-->
<!-- Generator: Adobe Illustrator 18.1.1, SVG Export Plug-In . SVG Version: 6.00 Build 0)  -->

<svg version="1.1" id="_x32_" xmlns="http://www.w3.org/2000/svg" xmlns:xlink="http://www.w3.org/1999/xlink" x="0px" y="0px" viewBox="0 0 512 512" style="width: 32px; height: 32px; opacity: 1;" xml:space="preserve">
<style type="text/css">
	.st0{fill:#4B4B4B;}
</style>
<g>
	<path class="st0" d="M512,333.634c0,0,0-12.178,0-25.708c0-92.006-59.537-114.436-105.536-114.436c-6.855,0-127.222,0-188.172,0
		c-20.299,0-28.609-10.791-30.842-15.78C141.536,75.416,64.045,85.258,64.045,85.258s-13.54-27.06-44.656-22.996
		c-13.684,1.781,12.178,44.648,12.178,44.648S4.507,194.85,0.45,207.028c-4.056,12.178,20.292,31.108,32.478,25.699
		c12.17-5.408,45.99-47.35,59.52-31.108c13.538,16.234,44.655,87.933,39.246,120.41c-5.426,32.469-35.182,100.119-35.182,100.119
		c-9.473,16.234,27.052,40.59,43.295,20.291l56.474-89.413c5.28-8.344,13.547-18.476,24.322-13.41c0,0,17.595,11.69,57.15,11.69
		c39.563,0,60.514-11.69,60.514-11.69c9.568-4.056,17.141,4.049,22.592,10.963l54.591,86.008
		c14.65,24.056,56.336,9.259,45.939-17.219c0,0-35.053-72.982-36.405-91.929c-0.839-11.63-0.283-38.16,0-55.481
		c0.136-9.491-0.924-36.311,11.364-35.738c33.71,2.131,18.819,97.415,18.819,97.415H512z"></path>
</g>
</svg>
